HIERARCHY
ROOT root
{
	OFFSET	0	13.1	24.9
	CHANNELS 6  Xposition Yposition Zposition Xrotation Yrotation Zrotation
	JOINT spine_1
	{
		OFFSET	0	9.99999	0
		CHANNELS 3  Xrotation Yrotation Zrotation
		JOINT spine_2
		{
			OFFSET	0	112	-10
			CHANNELS 3  Xrotation Yrotation Zrotation
			JOINT spine_3
			{
				OFFSET	0	206.5	19.3
				CHANNELS 3  Xrotation Yrotation Zrotation
				JOINT spine_4
				{
					OFFSET	0	110.4	14.6
					CHANNELS 3  Xrotation Yrotation Zrotation
					JOINT neck_1
					{
						OFFSET	0	71.8	-50.3
						CHANNELS 3  Xrotation Yrotation Zrotation
						JOINT neck_2
						{
							OFFSET	0	86.2	-25.8
							CHANNELS 3  Xrotation Yrotation Zrotation
							JOINT head_ee
							{
								OFFSET	0	179.8	-8.7
								CHANNELS 3  Xrotation Yrotation Zrotation
								End Site
								{
									OFFSET	1	0	0
								}
							}
						}
					}
					JOINT left_clavicle
					{
						OFFSET	-43.2	22.4	-70.8
						CHANNELS 3  Xrotation Yrotation Zrotation
						JOINT left_shoulder
						{
							OFFSET	-93.9	-5.79999	48.7
							CHANNELS 3  Xrotation Yrotation Zrotation
							JOINT left_elbow
							{
								OFFSET	-291.4	-30.8	15.2
								CHANNELS 3  Xrotation Yrotation Zrotation
								JOINT left_lowarm_twist
								{
									OFFSET	-110.7	-3.89999	13.6
									CHANNELS 3  Xrotation Yrotation Zrotation
									JOINT left_hand
									{
										OFFSET	-110.7	-3.89999	13.6
										CHANNELS 3  Xrotation Yrotation Zrotation
										JOINT left_ee
										{
											OFFSET	-80.8	-5.10001	12.1
											CHANNELS 3  Xrotation Yrotation Zrotation
											End Site
											{
												OFFSET	1	0	0
											}
										}
									}
								}
							}
						}
					}
					JOINT right_clavicle
					{
						OFFSET	43.2	22.4	-70.8
						CHANNELS 3  Xrotation Yrotation Zrotation
						JOINT right_shoulder
						{
							OFFSET	93.9	-5.79999	48.7
							CHANNELS 3  Xrotation Yrotation Zrotation
							JOINT right_elbow
							{
								OFFSET	291.4	-30.8	15.2
								CHANNELS 3  Xrotation Yrotation Zrotation
								JOINT right_lowarm_twist
								{
									OFFSET	110.7	-3.89999	13.6
									CHANNELS 3  Xrotation Yrotation Zrotation
									JOINT right_hand
									{
										OFFSET	110.7	-3.89999	13.6
										CHANNELS 3  Xrotation Yrotation Zrotation
										JOINT right_ee
										{
											OFFSET	80.8	-5.10001	12.1
											CHANNELS 3  Xrotation Yrotation Zrotation
											End Site
											{
												OFFSET	1	0	0
											}
										}
									}
								}
							}
						}
					}
				}
			}
		}
	}
	JOINT left_hip
	{
		OFFSET	-82.8	-127.5	0.300001
		CHANNELS 3  Xrotation Yrotation Zrotation
		JOINT left_knee
		{
			OFFSET	-28.2	-396.7	2.2
			CHANNELS 3  Xrotation Yrotation Zrotation
			JOINT left_ankle
			{
				OFFSET	-11.7	-411.3	35.4
				CHANNELS 3  Xrotation Yrotation Zrotation
				JOINT left_toes
				{
					OFFSET	0	-60	-88.6
					CHANNELS 3  Xrotation Yrotation Zrotation
					JOINT left_foot_ee
					{
						OFFSET	-22.5	-16.5	-42.2
						CHANNELS 3  Xrotation Yrotation Zrotation
						End Site
						{
							OFFSET	1	0	0
						}
					}
				}
			}
		}
	}
	JOINT right_hip
	{
		OFFSET	82.8	-127.5	0.300001
		CHANNELS 3  Xrotation Yrotation Zrotation
		JOINT right_knee
		{
			OFFSET	28.2	-396.7	2.2
			CHANNELS 3  Xrotation Yrotation Zrotation
			JOINT right_ankle
			{
				OFFSET	11.7	-411.3	35.4
				CHANNELS 3  Xrotation Yrotation Zrotation
				JOINT right_toes
				{
					OFFSET	0	-60	-88.6
					CHANNELS 3  Xrotation Yrotation Zrotation
					JOINT right_foot_ee
					{
						OFFSET	22.5	-16.5	-42.2
						CHANNELS 3  Xrotation Yrotation Zrotation
						End Site
						{
							OFFSET	1	0	0
						}
					}
				}
			}
		}
	}
}
MOTION
Frames: 9
Frame Time: 0.02
192.646 729.512 -553.843 82.2635 -73.7723 82.1969 -7.23582 0.257871 1.73309 -7.23416 0.147085 1.74598 -7.22567 -0.440085 1.69601 -7.22965 -0.166752 1.74421 -6.75363 0.201863 -10.4358 -6.42142 7.9724 -10.4598 -0.0 0.0 -0.0 -1.39656 -10.7227 -4.18742 10.5113 -3.61603 72.4927 1.68707 -39.883 0.61213 -10.9052 -0.509297 1.29581 2.64832 10.24 21.7585 -0.0 0.0 -0.0 0.455008 27.1103 2.1227 -0.828699 63.6686 -78.0531 0.313095 8.81642 -0.0241366 13.709 -0.277823 1.725 -1.36048 -28.8218 -3.89354 0.0 0.0 0.0 -10.5043 11.0224 -5.18681 -16.0289 0.321787 2.43075 22.9138 -21.203 -3.49416 11.2604 -0.0 -0.0 -0.0 0.0 -0.0 -10.1338 -35.1317 3.66121 -2.23626 -0.085595 -0.332494 37.7581 24.6885 5.36841 38.8896 -0.0 -0.0 0.0 0.0 0.0 
195.644 731.148 -547.805 81.4384 -73.6864 80.9963 -7.40107 0.550965 1.72251 -7.39953 0.440258 1.75406 -7.38129 -0.170931 1.80036 -7.3858 0.115499 1.80476 -7.11129 -0.364934 -11.2844 -6.73077 7.48382 -11.3916 -0.0 0.0 -0.0 -0.975292 -11.5988 -3.41756 9.57138 -4.52558 71.9065 1.49663 -36.5503 0.494266 -11.2319 -0.528317 1.33303 2.8423 10.0905 23.0652 -0.0 0.0 -0.0 -0.269977 27.3318 3.72602 -0.27281 62.1034 -77.6344 0.40505 11.3459 -0.0402365 14.1553 -0.279883 1.78197 -1.4176 -28.7754 -3.56585 0.0 0.0 0.0 -10.0423 11.2881 -5.43237 -16.735 0.320222 2.53908 21.2614 -21.1786 -3.27236 11.3228 -0.0 -0.0 -0.0 0.0 -0.0 -10.7468 -35.8695 3.45908 -3.87912 -0.140165 -0.578713 37.8165 23.2811 5.30156 39.0597 -0.0 -0.0 0.0 0.0 0.0 
201.567 732.992 -537.427 78.0887 -73.0605 77.1686 -7.50559 0.660426 1.87425 -7.5038 0.539846 1.91246 -7.47994 -0.133348 1.98269 -7.48538 0.181391 1.97887 -7.17458 -0.568267 -11.2937 -6.79538 7.10254 -11.4341 -0.0 0.0 -0.0 -0.621237 -12.6956 -2.80929 8.33409 -5.92637 70.7577 1.28856 -32.5493 0.376197 -11.172 -0.524816 1.32622 3.10971 9.1417 24.6468 -0.0 0.0 -0.0 0.0831223 28.715 3.10193 1.25955 60.2734 -79.8007 0.418435 11.7107 -0.0429116 14.4733 -0.28108 1.82257 -1.42457 -28.8669 -3.56872 0.0 0.0 0.0 -9.57443 11.6297 -5.5079 -16.9288 0.319559 2.5688 18.7582 -21.2043 -2.92752 10.5844 -0.0 -0.0 -0.0 0.0 -0.0 -11.6446 -35.294 2.98421 -5.41307 -0.18472 -0.809902 38.1252 22.5467 5.29549 39.5596 -0.0 -0.0 0.0 0.0 0.0 
201.606 732.524 -534.542 81.4048 -73.3339 80.6639 -7.77024 0.856289 1.87633 -7.76858 0.735181 1.92699 -7.73743 0.0366329 2.06209 -7.74318 0.361774 2.03045 -6.2823 -0.805319 -10.9872 -5.91788 6.59302 -11.2526 -0.0 0.0 -0.0 -0.47183 -13.8315 -2.63129 7.3653 -5.63125 70.9877 1.09735 -28.5275 0.278979 -8.98775 -0.401972 1.07527 3.30856 7.45076 25.5061 -0.0 0.0 -0.0 -0.258967 28.7561 3.85204 -1.27218 59.4922 -78.1252 0.508828 14.1474 -0.0631409 13.9624 -0.279047 1.75735 -1.85949 -28.6303 -1.12267 0.0 0.0 0.0 -8.78211 12.2032 -5.3627 -17.3807 0.317623 2.6381 15.9801 -19.5093 -2.49052 10.018 -0.0 -0.0 -0.0 0.0 -0.0 -12.4077 -35.3905 2.45243 -3.93544 -0.141911 -0.58718 38.7426 23.8543 5.41993 40.178 -0.0 -0.0 0.0 0.0 0.0 
202.068 735.12 -530.49 83.4243 -73.327 82.7912 -7.92794 0.920832 1.66 -7.92677 0.813352 1.71521 -7.89706 0.1769 1.88998 -7.90174 0.473116 1.83835 -5.25486 -1.17487 -10.5706 -4.91423 5.77256 -10.9859 -0.0 0.0 -0.0 0.0637329 -14.6693 -1.59406 5.16261 -8.91937 70.8576 0.95226 -25.2538 0.21333 -10.8652 -0.506985 1.29126 3.38306 9.70066 26.8069 -0.0 0.0 -0.0 -0.801749 29.7748 5.14257 -0.784088 57.6972 -77.8611 0.542843 15.0514 -0.0717152 13.6829 -0.277689 1.72167 -1.78532 -28.7253 -1.56597 0.0 0.0 0.0 -8.09599 12.6502 -5.34646 -17.9719 0.314264 2.72876 13.4725 -16.4886 -2.07157 8.3112 -0.0 -0.0 -0.0 0.0 -0.0 -12.7154 -32.0513 1.97471 -4.47386 -0.158175 -0.66821 38.4524 22.1564 5.30813 40.1837 -0.0 -0.0 0.0 0.0 0.0 
202.768 735.609 -524.754 86.6181 -72.807 85.6696 -8.24168 1.18905 1.88781 -8.24033 1.06654 1.95962 -8.19651 0.319737 2.20794 -8.20269 0.664349 2.12979 -4.80765 -0.188961 -9.97927 -4.48904 7.20152 -10.2586 -0.0 0.0 -0.0 0.542051 -15.2414 -0.642883 3.64268 -8.48653 69.3098 0.882194 -23.6057 0.184349 -9.77353 -0.445059 1.16608 3.61234 8.3229 28.0363 -0.0 0.0 -0.0 -1.15767 31.0579 6.05027 -1.31171 56.5903 -75.3625 0.706778 19.2961 -0.120154 14.2828 -0.28039 1.79825 -1.52346 -28.9048 -3.05444 0.0 0.0 0.0 -7.92732 13.3247 -5.40971 -19.0146 0.306062 2.88853 11.1361 -17.2008 -1.73943 8.42134 -0.0 -0.0 -0.0 0.0 -0.0 -15.2891 -30.5413 1.3747 -1.86547 -0.0723022 -0.277143 38.1543 22.7345 5.30738 40.1685 -0.0 -0.0 0.0 0.0 0.0 
202.279 734.874 -523.349 84.1244 -72.8345 83.4536 -8.34427 0.963773 1.84367 -8.34278 0.844524 1.90124 -8.30797 0.127614 2.07639 -8.3137 0.453872 2.03021 -5.29818 -0.351307 -9.58128 -5.01095 6.53254 -9.82816 -0.0 0.0 -0.0 1.18267 -13.8355 0.865175 3.92271 -8.01003 69.0933 0.831309 -22.382 0.164471 -8.57343 -0.379757 1.02715 4.01266 9.36285 31.4015 -0.0 0.0 -0.0 -0.797415 30.0839 5.16472 -3.36867 52.9837 -72.3044 0.865039 23.1956 -0.177536 12.8141 -0.272356 1.61083 -1.81406 -27.384 -0.781655 0.0 0.0 0.0 -6.49505 14.1492 -5.86527 -20.2267 0.292875 3.07403 9.36057 -14.7998 -1.44553 5.30896 -0.0 -0.0 -0.0 0.0 -0.0 -15.7858 -31.6403 0.639581 -1.00614 -0.0401192 -0.149191 38.9591 22.3815 5.36674 40.166 -0.0 -0.0 0.0 0.0 0.0 
200.332 737.434 -522.56 90.0 -72.2295 90.0 -8.53927 1.03055 1.96083 -8.53759 0.903718 2.0224 -8.49786 0.133492 2.21103 -8.50436 0.480926 2.16224 -5.70634 1.35876 -10.1882 -5.36423 10.0747 -10.1147 -0.0 0.0 -0.0 1.91014 -14.6724 2.31697 -0.730556 -14.8536 67.894 0.710863 -19.3993 0.121507 -10.0953 -0.463061 1.20309 4.43113 8.71681 34.4648 -0.0 0.0 -0.0 -0.738976 31.2568 5.15585 -2.99431 50.2771 -69.6171 0.964245 25.5314 -0.218469 10.7775 -0.253272 1.35141 -1.61319 -26.8023 -1.61392 0.0 0.0 0.0 -6.02455 18.6493 -5.82097 -21.0111 0.28225 3.19393 5.39934 -13.4603 -0.837768 3.95011 -0.0 -0.0 -0.0 0.0 -0.0 -17.0863 -24.9243 0.599092 0.762553 0.0321509 0.1126 38.7813 19.6862 5.22903 40.1811 -0.0 -0.0 0.0 0.0 0.0 
205.141 738.349 -521.785 99.8072 -72.1779 98.2957 -8.70429 1.1264 1.92926 -8.70277 1.00138 1.997 -8.65998 0.227631 2.22229 -8.66641 0.575661 2.1585 -4.90383 1.61643 -6.51332 -4.75173 7.876 -6.38346 -0.0 0.0 -0.0 2.08051 -11.8122 2.95338 -1.86211 -14.1121 68.4634 0.706659 -19.293 0.120114 -9.66709 -0.439149 1.15381 4.73175 22.4761 40.2667 -0.0 0.0 -0.0 0.494165 31.376 2.48392 -4.47943 46.1141 -64.1742 1.02946 27.0193 -0.247341 8.88253 -0.227244 1.11077 -1.80185 -17.713 3.73954 0.0 0.0 0.0 -4.02336 16.2306 -6.49565 -24.1276 0.22385 3.66853 -2.50547 -15.7833 0.404549 11.1991 -0.0 -0.0 -0.0 0.0 -0.0 -17.9744 -26.1649 0.626339 3.39064 0.154403 0.497265 38.7466 19.7698 5.2293 40.1532 -0.0 -0.0 0.0 0.0 0.0 
